<svg width="346" height="281" viewBox="0 0 346 281" fill="none" xmlns="http://www.w3.org/2000/svg">
<g clip-path="url(#clip0)">
<path d="M248.093 145.776C255.888 135.72 260 124.099 260 112.104C260 77.6774 226.177 49.6667 184.6 49.6667C155.974 49.6667 129.506 63.3788 116.902 84.6374C98.1829 96.0108 86 114.347 86 135C86 146.995 90.1122 158.613 97.9074 168.672C96.4284 183.544 92.5163 194.571 86.8497 199.781C85.9681 200.592 85.7477 201.832 86.3045 202.856C86.7975 203.771 87.8125 204.333 88.9 204.333C89.0334 204.333 89.1668 204.325 89.3031 204.307C90.3181 204.176 113.759 201.072 130.822 192.077C140.479 195.635 150.76 197.437 161.4 197.437C186.122 197.437 208.102 187.533 221.859 172.264C237.841 178.893 255.899 181.309 256.694 181.411C256.83 181.429 256.967 181.437 257.1 181.437C258.187 181.437 259.2 180.875 259.695 179.96C260.252 178.933 260.035 177.693 259.15 176.885C253.484 171.675 249.569 160.648 248.093 145.776ZM161.4 192.104C153.016 192.104 144.887 190.883 137.144 188.509C146.813 182.936 146.822 182.496 146.816 180.987C146.81 180.056 146.268 179.173 145.401 178.693C144.093 177.968 142.425 178.304 141.549 179.416C140.12 180.445 134.276 183.888 129.074 186.837C118.341 192.792 104.021 196.205 95.5787 197.832C100.79 189.371 102.927 177.507 103.78 168.136C103.841 167.493 103.641 166.853 103.226 166.331C95.7498 157.011 91.8 146.176 91.8 135C91.8 115.744 103.49 98.6961 121.339 88.3468C122.453 87.7014 123.581 87.0801 124.732 86.4934C125.005 86.3548 125.275 86.2108 125.55 86.0748C126.762 85.4748 128.001 84.9148 129.248 84.3788C129.706 84.1814 130.167 83.9868 130.631 83.7974C131.907 83.2801 133.195 82.7868 134.502 82.3361C134.958 82.1788 135.425 82.0374 135.886 81.8881C136.918 81.5521 137.962 81.2374 139.012 80.9441C139.493 80.8081 139.972 80.6668 140.459 80.5414C141.822 80.1868 143.202 79.8721 144.592 79.5894C145.076 79.4908 145.563 79.4028 146.05 79.3121C147.3 79.0801 148.559 78.8748 149.826 78.6988C150.119 78.6588 150.406 78.6081 150.702 78.5708C152.233 78.3761 153.779 78.2348 155.33 78.1254C155.733 78.0961 156.139 78.0721 156.545 78.0481C158.155 77.9574 159.773 77.8934 161.4 77.8934C199.776 77.8934 231 103.509 231 134.997C231 136.285 230.927 137.568 230.823 138.845C230.797 139.179 230.765 139.509 230.73 139.843C230.608 141.024 230.455 142.2 230.246 143.365C230.229 143.464 230.217 143.565 230.2 143.667C229.973 144.885 229.68 146.091 229.359 147.288C229.26 147.656 229.156 148.021 229.048 148.389C228.738 149.445 228.399 150.493 228.016 151.531C227.914 151.803 227.813 152.077 227.706 152.347C227.311 153.363 226.873 154.365 226.409 155.363C226.224 155.76 226.032 156.157 225.838 156.552C225.319 157.595 224.774 158.627 224.176 159.645C224.002 159.941 223.814 160.229 223.634 160.523C223.112 161.376 222.561 162.219 221.987 163.053C221.734 163.419 221.482 163.787 221.218 164.147C220.502 165.131 219.757 166.104 218.965 167.056C206.431 182.163 185.305 192.104 161.4 192.104ZM225.473 167.915C225.591 167.755 225.693 167.589 225.809 167.429C226.485 166.512 227.131 165.581 227.749 164.635C228.097 164.101 228.419 163.563 228.747 163.021C229.103 162.437 229.451 161.848 229.785 161.251C230.092 160.701 230.4 160.152 230.69 159.597C231.116 158.776 231.516 157.941 231.902 157.101C232.198 156.456 232.473 155.808 232.743 155.155C233.053 154.408 233.349 153.656 233.624 152.896C233.807 152.387 233.984 151.877 234.152 151.365C234.425 150.536 234.671 149.696 234.903 148.853C235.008 148.469 235.13 148.091 235.225 147.704C235.524 146.509 235.776 145.299 235.991 144.077C236.058 143.699 236.11 143.315 236.168 142.933C236.313 141.987 236.435 141.032 236.527 140.072C236.565 139.685 236.606 139.299 236.635 138.912C236.733 137.616 236.8 136.315 236.8 135C236.8 100.573 202.977 72.5628 161.4 72.5628C160.011 72.5628 158.63 72.6001 157.259 72.6614C156.76 72.6828 156.267 72.7254 155.771 72.7548C154.907 72.8081 154.046 72.8614 153.19 72.9388C152.572 72.9948 151.96 73.0668 151.349 73.1334C150.632 73.2134 149.916 73.2934 149.205 73.3894C148.521 73.4801 147.842 73.5841 147.164 73.6934C146.549 73.7921 145.937 73.8934 145.325 74.0054C144.586 74.1388 143.849 74.2774 143.118 74.4294C142.605 74.5361 142.095 74.6508 141.584 74.7681C140.784 74.9494 139.983 75.1281 139.195 75.3308C138.844 75.4214 138.499 75.5228 138.148 75.6161C135.114 76.4321 132.145 77.4054 129.251 78.5388C129.045 78.6188 128.836 78.6934 128.63 78.7761C128.366 78.8828 128.096 78.9734 127.832 79.0828C140.761 64.2001 161.939 55.0001 184.6 55.0001C222.976 55.0001 254.2 80.6161 254.2 112.104C254.2 123.28 250.25 134.115 242.777 143.435C242.359 143.955 242.162 144.597 242.223 145.24C243.076 154.608 245.213 166.469 250.424 174.933C244.082 173.709 234.425 171.472 225.473 167.915Z" fill="black"/>
<path d="M123.7 124.333C117.302 124.333 112.1 129.117 112.1 135C112.1 140.883 117.302 145.667 123.7 145.667C130.097 145.667 135.3 140.883 135.3 135C135.3 129.117 130.097 124.333 123.7 124.333ZM123.7 140.333C120.501 140.333 117.9 137.941 117.9 135C117.9 132.059 120.501 129.667 123.7 129.667C126.899 129.667 129.5 132.059 129.5 135C129.5 137.941 126.899 140.333 123.7 140.333Z" fill="black"/>
<path d="M161.4 124.333C155.002 124.333 149.8 129.117 149.8 135C149.8 140.883 155.002 145.667 161.4 145.667C167.797 145.667 173 140.883 173 135C173 129.117 167.797 124.333 161.4 124.333ZM161.4 140.333C158.201 140.333 155.6 137.941 155.6 135C155.6 132.059 158.201 129.667 161.4 129.667C164.599 129.667 167.2 132.059 167.2 135C167.2 137.941 164.599 140.333 161.4 140.333Z" fill="black"/>
<path d="M199.1 124.333C192.702 124.333 187.5 129.117 187.5 135C187.5 140.883 192.702 145.667 199.1 145.667C205.497 145.667 210.7 140.883 210.7 135C210.7 129.117 205.497 124.333 199.1 124.333ZM199.1 140.333C195.901 140.333 193.3 137.941 193.3 135C193.3 132.059 195.901 129.667 199.1 129.667C202.298 129.667 204.9 132.059 204.9 135C204.9 137.941 202.298 140.333 199.1 140.333Z" fill="black"/>
</g>
<path d="M341.5 140.5C341.5 214.781 266.98 276.5 173 276.5C79.0198 276.5 4.5 214.781 4.5 140.5C4.5 66.219 79.0198 4.5 173 4.5C266.98 4.5 341.5 66.219 341.5 140.5Z" stroke="white" stroke-width="9"/>
<defs>
<clipPath id="clip0">
<rect x="86" y="47" width="174" height="160" fill="#74989f"/>
</clipPath>
</defs>
</svg>
