<svg width="343" height="282" viewBox="0 0 343 282" fill="none" xmlns="http://www.w3.org/2000/svg">
<path d="M338.5 141C338.5 215.603 264.596 277.5 171.5 277.5C78.4041 277.5 4.5 215.603 4.5 141C4.5 66.3972 78.4041 4.5 171.5 4.5C264.596 4.5 338.5 66.3972 338.5 141Z" stroke="white" stroke-width="9"/>
<g clip-path="url(#clip0)">
<path d="M171 118.333C182.966 118.333 192.7 109.957 192.7 99.6667C192.7 89.376 182.966 81 171 81C159.034 81 149.3 89.376 149.3 99.6667C149.3 109.957 159.034 118.333 171 118.333ZM171 86.3333C179.547 86.3333 186.5 92.3147 186.5 99.6667C186.5 107.019 179.547 113 171 113C162.453 113 155.5 107.019 155.5 99.6667C155.5 92.3147 162.453 86.3333 171 86.3333Z" fill="#363636"/>
<path d="M170.451 195.019L218.008 135.933C235.846 115.477 233.267 81.8533 212.487 63.9813C201.259 54.32 186.329 49 170.451 49C154.573 49 139.643 54.32 128.415 63.9787C107.636 81.8507 105.057 115.475 122.823 135.851L170.451 195.019ZM132.799 67.7493C142.858 59.0987 156.228 54.3333 170.451 54.3333C184.674 54.3333 198.044 59.0987 208.104 67.7493C226.859 83.88 229.168 114.248 212.98 132.813L170.451 185.648L127.854 132.733C111.734 114.248 114.047 83.88 132.799 67.7493Z" fill="#363636"/>
<path d="M208.563 163.685C206.858 163.507 205.32 164.557 205.122 166.021C204.923 167.485 206.138 168.811 207.837 168.981C240.437 172.283 257.8 181.179 257.8 186.333C257.8 193.571 224.779 203.667 171 203.667C117.221 203.667 84.2 193.571 84.2 186.333C84.2 181.179 101.563 172.283 134.163 168.981C135.861 168.811 137.077 167.483 136.878 166.021C136.677 164.557 135.139 163.501 133.437 163.685C100.797 166.992 78 176.304 78 186.333C78 197.597 109.945 209 171 209C232.054 209 264 197.597 264 186.333C264 176.304 241.203 166.992 208.563 163.685Z" fill="#363636"/>
</g>
<defs>
<clipPath id="clip0">
<rect x="78" y="49" width="186" height="160" fill="white"/>
</clipPath>
</defs>
</svg>
