<svg width="340" height="281" viewBox="0 0 340 281" fill="none" xmlns="http://www.w3.org/2000/svg">
<g clip-path="url(#clip0)">
<path d="M254.706 61.7816C253.572 60.7388 251.739 60.7388 250.605 61.7816L239.851 71.6674H172.33L87.4431 150.367C85.5087 152.143 84.4443 154.509 84.4443 157.021C84.4443 159.533 85.5087 161.899 87.4431 163.675L146.797 218.253C148.79 220.085 151.403 221 154.022 221C156.649 221 159.283 220.077 161.295 218.227L243.952 140.167V75.4382L254.703 65.5524C255.837 64.5097 255.837 62.8243 254.706 61.7816ZM150.898 214.483L91.5439 159.904C90.7057 159.133 90.2446 158.109 90.2446 157.021C90.2446 155.933 90.7057 154.909 91.5526 154.13L117.219 130.334L182.603 190.46L157.165 214.483C155.44 216.069 152.627 216.069 150.898 214.483ZM238.155 138.001L186.651 186.638L121.305 126.547L174.746 77.001H234.054L220.038 89.8896C217.744 88.4922 215.003 87.6682 212.054 87.6682C204.058 87.6682 197.553 93.6498 197.553 101.002C197.553 108.355 204.058 114.336 212.054 114.336C220.049 114.336 226.554 108.355 226.554 101.002C226.554 98.29 225.658 95.7699 224.138 93.6605L238.155 80.7718V138.001ZM220.754 101.002C220.754 105.413 216.85 109.003 212.054 109.003C207.257 109.003 203.353 105.413 203.353 101.002C203.353 96.5913 207.257 93.0018 212.054 93.0018C213.393 93.0018 214.646 93.3058 215.78 93.8045L210.003 99.1167C208.869 100.159 208.869 101.845 210.003 102.888C210.569 103.408 211.311 103.669 212.054 103.669C212.796 103.669 213.538 103.408 214.104 102.888L219.881 97.5753C220.423 98.6181 220.754 99.7701 220.754 101.002Z" fill="black"/>
</g>
<path d="M335.5 140.5C335.5 214.846 262.244 276.5 170 276.5C77.7563 276.5 4.5 214.846 4.5 140.5C4.5 66.1538 77.7563 4.5 170 4.5C262.244 4.5 335.5 66.1538 335.5 140.5Z" stroke="white" stroke-width="9"/>
<defs>
<clipPath id="clip0">
<rect x="83" y="61" width="174" height="160" fill="white"/>
</clipPath>
</defs>
</svg>
